<svg width="64" height="64" viewBox="0 0 120 120" fill="none" xmlns="http://www.w3.org/2000/svg">
  <path
    d="M19 100V18H37L72 58C83 71 92 79 108 83V100C84 99 69 92 54 77L34 53V100H19Z"
    fill="url(#brandOrange)"
  />
  <path
    d="M79 23C95 23 108 29 116 40L105 51C100 44 91 40 81 40C67 40 58 49 58 62C58 75 67 84 81 84C89 84 96 82 103 78L100 93C94 98 86 100 77 100C52 100 41 82 41 62C41 40 57 23 79 23Z"
    fill="#2E2E2E"
  />
  <path
    d="M93 88L98 76L112 83L107 87L115 95L109 101L101 92L97 97L93 88Z"
    fill="#4A4A4A"
  />
  <defs>
    <linearGradient id="brandOrange" x1="20" y1="21" x2="108" y2="100" gradientUnits="userSpaceOnUse">
      <stop stop-color="#FF6A00" />
      <stop offset="1" stop-color="#FF8F3A" />
    </linearGradient>
  </defs>
</svg>
